<svg xmlns="http://www.w3.org/2000/svg" xmlns:xlink="http://www.w3.org/1999/xlink" version="1.1" x="0px" y="0px" viewBox="0 0 55 57" enable-background="new 0 0 55 57" xml:space="preserve"><g><path d="M47.18,38.43l-5.6,8.04l-3.95-3.24c-0.43-0.35-1.06-0.29-1.41,0.14c-0.35,0.43-0.29,1.06,0.14,1.41l4.79,3.93   c0.18,0.15,0.4,0.23,0.63,0.23c0.05,0,0.09,0,0.14-0.01c0.28-0.04,0.52-0.19,0.68-0.42l6.21-8.93c0.32-0.45,0.2-1.08-0.25-1.39   C48.12,37.86,47.49,37.97,47.18,38.43z"></path><path d="M50,33.77V33.5V22v-0.5v-12V9c0-0.17-0.06-0.32-0.14-0.46C48.74,4.24,40.12,0,25,0C9.92,0,1.3,4.22,0.15,8.51   C0.06,8.66,0,8.82,0,9v0.5v12V22v11.5V34v12c0,0.16,0.04,0.32,0.12,0.45C1.3,51.35,11.86,55,25,55c3.17,0,6.25-0.22,9.18-0.64   C36.36,56.01,39.06,57,42,57c7.17,0,13-5.83,13-13C55,39.85,53.04,36.16,50,33.77z M46.75,31.91c-0.14-0.06-0.28-0.1-0.42-0.15   c-0.31-0.11-0.63-0.21-0.95-0.29c-0.16-0.04-0.32-0.09-0.48-0.12c-0.33-0.07-0.66-0.13-1-0.18c-0.15-0.02-0.29-0.05-0.44-0.07   C42.98,31.03,42.49,31,42,31c-0.41,0-0.82,0.02-1.23,0.06c-0.14,0.01-0.27,0.03-0.4,0.05c-0.27,0.03-0.54,0.07-0.8,0.12   c-0.15,0.03-0.3,0.06-0.45,0.1c-0.25,0.06-0.49,0.12-0.73,0.19c-0.15,0.04-0.29,0.09-0.44,0.13c-0.25,0.08-0.5,0.18-0.75,0.27   c-0.12,0.05-0.24,0.09-0.36,0.14c-0.33,0.14-0.65,0.3-0.97,0.47c-0.03,0.01-0.05,0.02-0.08,0.04c-0.36,0.19-0.7,0.41-1.04,0.63   c-0.04,0.03-0.07,0.05-0.11,0.08c-0.29,0.2-0.57,0.41-0.84,0.63c-0.07,0.05-0.13,0.11-0.2,0.17c-0.24,0.2-0.47,0.41-0.69,0.63   c-0.07,0.07-0.14,0.13-0.2,0.2c-0.22,0.22-0.42,0.45-0.62,0.68c-0.06,0.07-0.12,0.14-0.18,0.21c-0.2,0.25-0.39,0.51-0.58,0.77   c-0.05,0.07-0.09,0.13-0.14,0.2c-0.22,0.33-0.42,0.66-0.61,1.01c-0.01,0.03-0.03,0.06-0.04,0.08c-0.17,0.31-0.32,0.63-0.46,0.96   c-0.08,0.19-0.15,0.39-0.23,0.59c-0.06,0.16-0.12,0.32-0.18,0.48c-0.08,0.23-0.14,0.47-0.21,0.71c-0.02,0.08-0.05,0.15-0.07,0.23   c-0.4,0.03-0.8,0.05-1.2,0.07c-0.27,0.01-0.53,0.03-0.8,0.04C26.6,40.98,25.8,41,25,41c-0.83,0-1.64-0.02-2.43-0.04   c-0.48-0.02-0.95-0.05-1.42-0.08c-0.3-0.02-0.6-0.03-0.9-0.05c-0.62-0.04-1.23-0.1-1.83-0.16c-0.12-0.01-0.25-0.02-0.36-0.03   c-0.69-0.07-1.35-0.16-2.01-0.26c-0.02,0-0.05-0.01-0.07-0.01c-3.38-0.5-6.28-1.26-8.55-2.17c-0.02-0.01-0.03-0.01-0.05-0.02   c-0.41-0.17-0.8-0.34-1.17-0.51c-0.05-0.02-0.1-0.04-0.14-0.07c-0.33-0.16-0.64-0.33-0.94-0.49c-0.07-0.04-0.15-0.08-0.22-0.12   c-0.26-0.15-0.49-0.3-0.71-0.46c-0.09-0.06-0.18-0.12-0.26-0.18c-0.19-0.14-0.36-0.28-0.52-0.42c-0.09-0.08-0.18-0.16-0.27-0.24   c-0.13-0.13-0.25-0.26-0.36-0.39c-0.08-0.09-0.16-0.19-0.22-0.28c-0.09-0.12-0.16-0.24-0.23-0.36c-0.06-0.1-0.1-0.2-0.15-0.3   c-0.05-0.12-0.09-0.24-0.11-0.36C2.04,33.83,2,33.66,2,33.5v-8.21c0.02,0.02,0.04,0.03,0.06,0.05c0.23,0.21,0.47,0.41,0.74,0.61   C6.57,28.79,14.09,31,25,31c10.88,0,18.4-2.2,22.18-5.03c0.29-0.21,0.55-0.43,0.8-0.65c0.01-0.01,0.02-0.01,0.02-0.02v7.18   c-0.05-0.03-0.11-0.05-0.16-0.07C47.48,32.22,47.12,32.06,46.75,31.91z M2.6,13.8c0.3,0.24,0.62,0.47,0.98,0.7   c0.07,0.05,0.16,0.09,0.23,0.14c0.29,0.18,0.6,0.36,0.93,0.54c0.12,0.06,0.24,0.13,0.37,0.19c0.37,0.19,0.75,0.37,1.15,0.54   c0.07,0.03,0.13,0.06,0.19,0.09c0.47,0.2,0.97,0.39,1.49,0.57c0.14,0.05,0.29,0.1,0.44,0.15c0.41,0.14,0.84,0.27,1.28,0.4   c0.16,0.05,0.31,0.09,0.48,0.14c0.58,0.16,1.19,0.32,1.82,0.46c0.09,0.02,0.18,0.04,0.27,0.06c0.56,0.12,1.14,0.23,1.74,0.34   c0.2,0.04,0.41,0.07,0.61,0.1c0.57,0.09,1.15,0.18,1.75,0.26c0.15,0.02,0.3,0.04,0.46,0.06c0.74,0.09,1.51,0.17,2.3,0.23   c0.2,0.02,0.4,0.03,0.6,0.04c0.63,0.05,1.28,0.08,1.94,0.11c0.24,0.01,0.48,0.02,0.73,0.03C23.21,18.98,24.09,19,25,19   s1.79-0.02,2.65-0.05c0.25-0.01,0.49-0.02,0.73-0.03c0.66-0.03,1.31-0.07,1.94-0.11c0.2-0.01,0.4-0.03,0.6-0.04   c0.79-0.07,1.56-0.14,2.3-0.23c0.16-0.02,0.3-0.04,0.46-0.06c0.6-0.08,1.18-0.16,1.75-0.26c0.21-0.03,0.41-0.07,0.61-0.1   c0.6-0.11,1.18-0.22,1.74-0.34c0.09-0.02,0.18-0.04,0.27-0.06c0.63-0.14,1.24-0.3,1.82-0.46c0.16-0.04,0.32-0.09,0.48-0.14   c0.44-0.13,0.87-0.26,1.28-0.4c0.15-0.05,0.3-0.1,0.44-0.15c0.52-0.18,1.02-0.37,1.49-0.57c0.07-0.03,0.13-0.06,0.19-0.09   c0.4-0.18,0.79-0.36,1.15-0.54c0.13-0.06,0.25-0.13,0.37-0.19c0.33-0.18,0.64-0.35,0.93-0.54c0.08-0.05,0.16-0.09,0.23-0.14   c0.35-0.23,0.67-0.46,0.98-0.7c0.08-0.06,0.14-0.12,0.21-0.18c0.13-0.11,0.27-0.21,0.39-0.32v8.21c0,0.16-0.04,0.33-0.08,0.49   c-0.03,0.12-0.06,0.23-0.11,0.35c-0.04,0.1-0.09,0.21-0.15,0.31c-0.07,0.12-0.14,0.24-0.22,0.36c-0.07,0.1-0.15,0.19-0.23,0.29   c-0.11,0.13-0.22,0.25-0.35,0.38c-0.08,0.08-0.18,0.17-0.27,0.25c-0.16,0.14-0.33,0.28-0.51,0.42c-0.09,0.06-0.18,0.13-0.27,0.19   c-0.22,0.15-0.45,0.3-0.71,0.45c-0.07,0.04-0.15,0.09-0.23,0.13c-0.29,0.17-0.6,0.33-0.93,0.49c-0.05,0.02-0.1,0.05-0.15,0.07   c-0.37,0.17-0.75,0.34-1.17,0.51c-0.02,0.01-0.04,0.01-0.06,0.02c-2.27,0.9-5.17,1.66-8.54,2.16c-0.02,0-0.05,0.01-0.07,0.01   c-0.65,0.1-1.32,0.18-2,0.26c-0.12,0.01-0.25,0.02-0.37,0.03c-0.6,0.06-1.2,0.12-1.83,0.16c-0.29,0.02-0.6,0.03-0.9,0.05   c-0.47,0.03-0.93,0.06-1.42,0.08C26.64,28.98,25.83,29,25,29s-1.64-0.02-2.43-0.04c-0.48-0.02-0.95-0.05-1.42-0.08   c-0.3-0.02-0.6-0.03-0.9-0.05c-0.62-0.04-1.23-0.1-1.83-0.16c-0.12-0.01-0.25-0.02-0.36-0.03c-0.69-0.07-1.35-0.16-2.01-0.26   c-0.02,0-0.05-0.01-0.07-0.01c-3.38-0.5-6.28-1.26-8.55-2.17c-0.02-0.01-0.03-0.01-0.05-0.02c-0.41-0.17-0.8-0.34-1.17-0.51   c-0.05-0.02-0.1-0.04-0.14-0.07c-0.33-0.16-0.64-0.33-0.94-0.49c-0.07-0.04-0.15-0.08-0.22-0.12c-0.26-0.15-0.49-0.3-0.71-0.46   c-0.09-0.06-0.18-0.12-0.26-0.18c-0.19-0.14-0.36-0.28-0.52-0.42c-0.09-0.08-0.18-0.16-0.27-0.24c-0.13-0.13-0.25-0.26-0.36-0.39   c-0.08-0.09-0.16-0.19-0.22-0.28c-0.09-0.12-0.16-0.24-0.23-0.36c-0.06-0.1-0.1-0.2-0.15-0.3c-0.05-0.12-0.09-0.24-0.11-0.36   C2.04,21.83,2,21.66,2,21.5v-8.21c0.12,0.11,0.26,0.22,0.39,0.32C2.46,13.68,2.53,13.74,2.6,13.8z M25,2c13.55,0,23,3.95,23,7.5   S38.55,17,25,17S2,13.05,2,9.5S11.45,2,25,2z M25,53c-13.04,0-22.4-3.7-22.97-7.16C2.02,45.79,2.01,45.75,2,45.71v-8.41   c0.02,0.02,0.04,0.03,0.06,0.05c0.23,0.21,0.47,0.41,0.74,0.61C6.57,40.79,14.09,43,25,43c0.8,0,1.6-0.02,2.39-0.05   c0.24-0.01,0.48-0.02,0.72-0.03c0.31-0.01,0.63-0.02,0.94-0.04C29.02,43.26,29,43.63,29,44c0,0.43,0.02,0.85,0.06,1.27   c0.01,0.14,0.04,0.27,0.05,0.4c0.04,0.28,0.07,0.56,0.13,0.84c0.03,0.15,0.07,0.29,0.1,0.44c0.06,0.26,0.12,0.52,0.2,0.78   c0.04,0.14,0.09,0.27,0.13,0.41c0.09,0.26,0.18,0.52,0.28,0.77c0.05,0.12,0.1,0.24,0.16,0.36c0.12,0.26,0.24,0.52,0.37,0.77   c0.06,0.11,0.11,0.21,0.17,0.32c0.14,0.25,0.29,0.5,0.45,0.75c0.06,0.1,0.13,0.2,0.19,0.29c0.17,0.24,0.34,0.47,0.52,0.7   c0.08,0.09,0.15,0.19,0.23,0.28c0.06,0.08,0.12,0.16,0.18,0.23C29.91,52.86,27.48,53,25,53z M42,55c-2.64,0-5.06-0.94-6.96-2.49   c-0.29-0.24-0.57-0.49-0.84-0.76c-0.11-0.11-0.21-0.23-0.31-0.34c-0.15-0.17-0.3-0.33-0.44-0.5c-0.12-0.15-0.23-0.3-0.34-0.45   c-0.11-0.15-0.22-0.3-0.32-0.46c-0.11-0.16-0.21-0.33-0.3-0.5c-0.09-0.16-0.18-0.32-0.27-0.49c-0.09-0.17-0.17-0.34-0.25-0.52   c-0.08-0.18-0.15-0.36-0.22-0.55c-0.06-0.17-0.13-0.33-0.19-0.51c-0.07-0.21-0.12-0.42-0.18-0.63c-0.04-0.16-0.09-0.31-0.12-0.47   c-0.05-0.25-0.09-0.5-0.13-0.76c-0.02-0.13-0.05-0.26-0.06-0.39C31.02,44.79,31,44.4,31,44c0-0.34,0.02-0.68,0.05-1.02   c0.03-0.33,0.08-0.66,0.14-1c0.05-0.27,0.12-0.54,0.19-0.8c0.02-0.07,0.04-0.15,0.06-0.22c0.06-0.22,0.14-0.43,0.21-0.65   c0.04-0.12,0.08-0.23,0.13-0.35c0.07-0.18,0.15-0.35,0.22-0.52c0.07-0.15,0.14-0.3,0.21-0.44c0.07-0.14,0.15-0.28,0.22-0.42   c0.1-0.18,0.21-0.35,0.31-0.52c0.07-0.1,0.13-0.21,0.2-0.31c0.14-0.2,0.29-0.4,0.44-0.59c0.05-0.07,0.1-0.13,0.16-0.2   c0.21-0.25,0.43-0.49,0.66-0.72c0.01-0.01,0.01-0.01,0.02-0.02c0.49-0.49,1.02-0.92,1.59-1.31c0.07-0.04,0.13-0.08,0.2-0.13   c0.21-0.14,0.43-0.27,0.65-0.4c0.1-0.06,0.21-0.11,0.31-0.16c0.19-0.1,0.39-0.2,0.59-0.28c0.12-0.05,0.24-0.1,0.37-0.15   c0.19-0.08,0.38-0.15,0.58-0.21c0.13-0.04,0.27-0.09,0.4-0.13c0.2-0.06,0.4-0.11,0.6-0.15c0.13-0.03,0.27-0.06,0.4-0.09   c0.22-0.04,0.45-0.07,0.68-0.1c0.12-0.02,0.24-0.04,0.36-0.05C41.29,33.02,41.64,33,42,33c0.34,0,0.68,0.02,1.01,0.05   c0.1,0.01,0.21,0.02,0.31,0.04c0.23,0.03,0.46,0.06,0.69,0.11c0.11,0.02,0.22,0.04,0.33,0.06c0.24,0.05,0.48,0.12,0.72,0.19   c0.08,0.02,0.16,0.04,0.24,0.07c0.29,0.09,0.58,0.2,0.86,0.32c0.13,0.06,0.27,0.12,0.4,0.18c0.15,0.07,0.31,0.14,0.46,0.22   c0.15,0.08,0.3,0.16,0.44,0.24c0.12,0.07,0.25,0.15,0.37,0.22c0.15,0.09,0.3,0.19,0.45,0.29C51.13,36.97,53,40.27,53,44   C53,50.07,48.07,55,42,55z"></path></g></svg>